# xmcd
#
# Track frame offsets: 
#        150
#        15412
#        34178
#        53906
#        73181
#        86716
#        108645
#        141775
#        160611
#        170921
#        196716
#        208453
#        225172
#        240581
#        249831
#        257807
#        269287
#        282140
#
# Disc length: 4062 seconds
#
# Revision: 0
# Processed by: cddbd v1.5.1PL2 Copyright (c) Steve Scherf et al.
# Submitted via: ExactAudioCopy v0.95a4
#
DISCID=fa0fdc12
DTITLE=Tom Waits - Don Hyde Benefit - 2-4-96 - Disc 1
DYEAR=1996
DGENRE=Blues
TTITLE0=I Don't Wanna Grow Up
TTITLE1=Black Wings
TTITLE2=Goin' Out West
TTITLE3=16 Shells From a Thirty Ought Six
TTITLE4=Such a Scream
TTITLE5=Jesus Gonna Be Here
TTITLE6=Earth Died Screaming
TTITLE7=Tango Til They're Sore
TTITLE8=A Little Rain
TTITLE9=Broken Bicycles
TTITLE10=Good Old World
TTITLE11=Invitation to the Blues
TTITLE12=Talk
TTITLE13=Johnsburg Illinois
TTITLE14=On the Nickel
TTITLE15=Christmas Carol from a Hooker
TTITLE16=All Stripped Down
TTITLE17=The Ocean Doesn't Want Me Today
EXTD=
EXTT0=
EXTT1=
EXTT2=
EXTT3=
EXTT4=
EXTT5=
EXTT6=
EXTT7=
EXTT8=
EXTT9=
EXTT10=
EXTT11=
EXTT12=
EXTT13=
EXTT14=
EXTT15=
EXTT16=
EXTT17=
PLAYORDER=
